<svg xmlns="http://www.w3.org/2000/svg" width="1400" height="560" viewBox="0 0 1400 560">
  <defs>
    <linearGradient id="bg" x1="0" y1="0" x2="1" y2="1"><stop offset="0" stop-color="#171a22"/><stop offset="1" stop-color="#0f1117"/></linearGradient>
    <linearGradient id="tile" x1="0" y1="0" x2="1" y2="1"><stop offset="0" stop-color="#4f46e5"/><stop offset="1" stop-color="#c026d3"/></linearGradient>
    <linearGradient id="sheen" x1="0" y1="0" x2="0" y2="1"><stop offset="0" stop-color="#fff" stop-opacity=".22"/><stop offset="1" stop-color="#fff" stop-opacity="0"/></linearGradient>
    <radialGradient id="glow" cx=".25" cy=".4" r=".7"><stop offset="0" stop-color="#6ea8fe" stop-opacity=".22"/><stop offset="1" stop-color="#6ea8fe" stop-opacity="0"/></radialGradient>
  </defs>
  <rect width="1400" height="560" fill="url(#bg)"/>
  <rect width="1400" height="560" fill="url(#glow)"/>
  <g transform="translate(120 152)">
    <rect width="256" height="256" rx="56" fill="url(#tile)"/>
    <rect width="256" height="128" rx="56" fill="url(#sheen)"/>
    <g fill="#fff">
      <rect x="44" y="104" width="24" height="48" rx="12"/>
      <rect x="80" y="72" width="24" height="112" rx="12"/>
      <rect x="116" y="48" width="24" height="160" rx="12"/>
      <rect x="152" y="80" width="24" height="96" rx="12"/>
      <rect x="188" y="112" width="24" height="32" rx="12"/>
    </g>
  </g>
  <text x="440" y="262" font-family="-apple-system, 'SF Pro Display', 'Helvetica Neue', Inter, Arial, sans-serif" font-size="96" font-weight="700" fill="#e7eaf2" letter-spacing="-2">Quilly</text>
  <text x="446" y="318" font-family="-apple-system, 'SF Pro Text', 'Helvetica Neue', Inter, Arial, sans-serif" font-size="34" fill="#8b93a7">Transcripts for Google Meet</text>
  <text x="446" y="372" font-family="-apple-system, 'SF Pro Text', 'Helvetica Neue', Inter, Arial, sans-serif" font-size="22" fill="#b7bdcc">Records captions locally · live side panel · export · ask AI with your own OpenRouter key</text>
</svg>
